<svg id="Layer_1" data-name="Layer 1" xmlns="http://www.w3.org/2000/svg" xmlns:xlink="http://www.w3.org/1999/xlink" viewBox="0 0 473.85 297.31"><defs><style>.cls-1{fill:url(#linear-gradient);}</style><linearGradient id="linear-gradient" x1="557.26" y1="1311.07" x2="1396.6" y2="1318.22" gradientTransform="translate(-628 -1058)" gradientUnits="userSpaceOnUse"><stop offset="0" stop-color="#f28f41"/><stop offset="0.49" stop-color="#ea555a"/><stop offset="1" stop-color="#d22127"/></linearGradient></defs><path class="cls-1" d="M475.66,238.21c-69.83-118.54-202.9-118.32-272.84,0,23.24-61.67,77-101.78,136.42-101.78s113.29,40.12,136.42,101.78ZM340,349.61a69.63,69.63,0,0,1-55.19-27.25h33a47.14,47.14,0,0,0,22.34,5.57,47.62,47.62,0,0,0,22.46-5.57h32.52A69.29,69.29,0,0,1,340,349.61Zm0,55H188.19a10.77,10.77,0,0,1-10.84-10.83h0a10.82,10.82,0,0,1,10.84-10.81H267.4a126.69,126.69,0,0,1-22-18.22H135.45a10.78,10.78,0,0,1-10.84-10.83h0a10.84,10.84,0,0,1,10.84-10.82h92.74a125.33,125.33,0,0,1-10.62-20.69H88.75a10.82,10.82,0,1,1,0-21.64H469.18A132.29,132.29,0,0,1,340,404.58ZM251.31,278.44H474.65c17.54,0,19.56-9.94,17.2-23C479.45,185,429.18,131.73,355.44,121.79a15.52,15.52,0,0,0-30.95-.34c-16.76,1.91-35.19,7.49-44.58,11.51-54.08,24.7-84.91,64.58-98.2,123.79H29.65a10.85,10.85,0,0,0,0,21.69H251.31Z" transform="translate(-18.81 -107.27)"/></svg>