<?xml version="1.0" encoding="utf-8"?>
<!-- Generator: Adobe Illustrator 26.0.3, SVG Export Plug-In . SVG Version: 6.00 Build 0)  -->
<svg version="1.1" id="Layer_1" xmlns="http://www.w3.org/2000/svg" xmlns:xlink="http://www.w3.org/1999/xlink" x="0px" y="0px"
	 viewBox="0 0 90.1 17.8" style="enable-background:new 0 0 90.1 17.8;" xml:space="preserve">
<style type="text/css">
	.st0{fill:url(#SVGID_1_);}
</style>
<linearGradient id="SVGID_1_" gradientUnits="userSpaceOnUse" x1="622.9959" y1="1066.7234" x2="672.5649" y2="1067.1459" gradientTransform="matrix(1 0 0 1 -628 -1058)">
	<stop  offset="0" style="stop-color:#F78F3D"/>
	<stop  offset="0.4876" style="stop-color:#F05359"/>
	<stop  offset="1" style="stop-color:#D11F26"/>
</linearGradient>
<path class="st0" d="M27.3,7.8c-4.1-7-12-7-16.1,0c1.4-3.6,4.5-6,8.1-6C22.7,1.8,25.9,4.2,27.3,7.8L27.3,7.8z M19.3,14.4
	c-1.3,0-2.5-0.6-3.3-1.6h1.9c0.4,0.2,0.8,0.3,1.3,0.3c0.5,0,0.9-0.1,1.3-0.3h1.6h0.3C21.8,13.8,20.6,14.4,19.3,14.4L19.3,14.4z
	 M19.3,17.7h-9c-0.4,0-0.6-0.3-0.6-0.6l0,0c0-0.3,0.3-0.6,0.6-0.6H15c-0.5-0.3-0.9-0.7-1.3-1.1H7.2c-0.4,0-0.6-0.3-0.6-0.6l0,0
	c0-0.3,0.3-0.6,0.6-0.6h5.5c-0.2-0.4-0.5-0.8-0.6-1.2H4.4c-0.4,0-0.6-0.3-0.6-0.6c0-0.3,0.3-0.6,0.6-0.6h7.2h10.5h4.7
	C26.1,15,23,17.7,19.3,17.7L19.3,17.7z M14,10.2h13.2c1,0,1.2-0.6,1-1.4c-0.7-4.2-3.7-7.3-8.1-7.9c0-0.5-0.4-0.9-0.9-0.9
	c-0.5,0-0.9,0.4-0.9,0.8c-1,0.1-2.1,0.4-2.6,0.7c-3.2,1.5-5,3.8-5.8,7.3h-9c-0.4,0-0.6,0.3-0.6,0.6c0,0.4,0.3,0.6,0.6,0.6h11.3H14z"
	/>
<g id="Black">
	<path d="M29.7,5.5h5v1.5h-3.4v1.8h3v1.5h-3v3.2h-1.6V5.5z"/>
	<path d="M35.6,10.8c0-0.4,0.1-0.8,0.2-1.1C36,9.3,36.2,9,36.5,8.8c0.3-0.3,0.6-0.5,0.9-0.6c0.3-0.2,0.7-0.2,1.1-0.2
		c0.4,0,0.8,0.1,1.1,0.2c0.3,0.2,0.7,0.4,0.9,0.6C40.8,9,41,9.3,41.2,9.7c0.2,0.3,0.2,0.7,0.2,1.1c0,0.4-0.1,0.8-0.2,1.1
		c-0.2,0.3-0.4,0.7-0.6,0.9c-0.3,0.3-0.6,0.5-0.9,0.6c-0.3,0.1-0.7,0.2-1.1,0.2c-0.4,0-0.8-0.1-1.1-0.2c-0.3-0.1-0.7-0.4-0.9-0.6
		c-0.3-0.3-0.5-0.6-0.6-0.9C35.7,11.5,35.6,11.2,35.6,10.8z M36.8,10.8c0,0.3,0,0.5,0.1,0.7c0.1,0.2,0.2,0.4,0.4,0.6
		s0.3,0.3,0.6,0.4c0.2,0.1,0.4,0.1,0.7,0.1c0.2,0,0.5,0,0.7-0.1c0.2-0.1,0.4-0.2,0.5-0.4c0.2-0.2,0.3-0.4,0.4-0.6
		c0.1-0.2,0.1-0.5,0.1-0.7c0-0.3,0-0.5-0.1-0.7c-0.1-0.2-0.2-0.4-0.4-0.6c-0.2-0.2-0.3-0.3-0.5-0.4C39,9,38.8,9,38.5,9
		c-0.2,0-0.5,0-0.7,0.1c-0.2,0.1-0.4,0.2-0.6,0.4c-0.2,0.2-0.3,0.4-0.4,0.6C36.8,10.3,36.8,10.5,36.8,10.8z"/>
	<path d="M42.2,10.8c0-0.4,0.1-0.8,0.2-1.1C42.5,9.3,42.7,9,43,8.8c0.3-0.3,0.6-0.5,0.9-0.6C44.3,8,44.6,7.9,45,7.9
		c0.4,0,0.8,0.1,1.1,0.2c0.3,0.2,0.7,0.4,0.9,0.6c0.3,0.3,0.5,0.6,0.6,0.9c0.1,0.3,0.2,0.7,0.2,1.1c0,0.4-0.1,0.8-0.2,1.1
		c-0.2,0.3-0.4,0.7-0.6,0.9c-0.3,0.3-0.6,0.5-0.9,0.6c-0.3,0.1-0.7,0.2-1.1,0.2c-0.4,0-0.8-0.1-1.1-0.2c-0.3-0.1-0.7-0.4-0.9-0.6
		s-0.5-0.6-0.6-0.9C42.2,11.5,42.2,11.2,42.2,10.8z M43.3,10.8c0,0.3,0,0.5,0.1,0.7c0.1,0.2,0.2,0.4,0.4,0.6s0.3,0.3,0.6,0.4
		c0.2,0.1,0.4,0.1,0.7,0.1c0.2,0,0.5,0,0.7-0.1c0.2-0.1,0.4-0.2,0.5-0.4c0.2-0.2,0.3-0.4,0.4-0.6c0.1-0.2,0.1-0.5,0.1-0.7
		c0-0.3,0-0.5-0.1-0.7c-0.1-0.2-0.2-0.4-0.4-0.6c-0.2-0.2-0.3-0.3-0.5-0.4C45.5,9,45.3,9,45,9s-0.5,0-0.7,0.1
		c-0.2,0.1-0.4,0.2-0.6,0.4c-0.2,0.2-0.3,0.4-0.4,0.6C43.3,10.3,43.3,10.5,43.3,10.8z"/>
	<path d="M49,13.6V7.9h1.7c0.6,0,1,0.1,1.4,0.3s0.7,0.4,1,0.7c0.2,0.3,0.4,0.6,0.5,0.9c0.1,0.3,0.2,0.7,0.2,1c0,0.4-0.1,0.8-0.2,1.1
		c-0.2,0.3-0.4,0.6-0.6,0.9c-0.3,0.2-0.6,0.4-0.9,0.5c-0.3,0.1-0.7,0.2-1.1,0.2H49z M50.1,12.5h0.7c0.3,0,0.5,0,0.8-0.1
		c0.2-0.1,0.4-0.2,0.6-0.3c0.2-0.1,0.3-0.3,0.4-0.5c0.1-0.2,0.1-0.5,0.1-0.7c0-0.4-0.1-0.7-0.2-0.9c-0.1-0.2-0.3-0.4-0.4-0.5
		c-0.2-0.1-0.4-0.2-0.5-0.3C51.3,9,51.2,9,51,9h-0.9V12.5z"/>
	<path d="M55.2,13.6V5.2h0l4.5,6.3l-0.7-0.2l4.5-6.2h0v8.4H62V8.8l0.1,0.8l-2.7,3.9h0l-2.8-3.9l0.3-0.8v4.7H55.2z"/>
	<path d="M66.8,11.8l-2.1-3.9h1.4l1.5,2.9l-0.3,0l1.4-2.9H70l-2.1,3.9v1.8h-1.1V11.8z"/>
	<path d="M73.6,9.3c-0.2-0.1-0.4-0.2-0.7-0.3c-0.2-0.1-0.4-0.1-0.6-0.1c-0.2,0-0.4,0-0.6,0.1c-0.1,0.1-0.2,0.2-0.2,0.4
		c0,0.1,0.1,0.3,0.2,0.4c0.1,0.1,0.2,0.2,0.4,0.3c0.2,0.1,0.3,0.2,0.5,0.2c0.2,0.1,0.3,0.1,0.5,0.2c0.2,0.1,0.3,0.2,0.4,0.3
		s0.2,0.3,0.3,0.5c0.1,0.2,0.1,0.4,0.1,0.7c0,0.3-0.1,0.6-0.2,0.8c-0.1,0.2-0.4,0.4-0.7,0.6c-0.3,0.2-0.6,0.2-1.1,0.2
		c-0.2,0-0.4,0-0.7-0.1c-0.2,0-0.4-0.1-0.7-0.2c-0.2-0.1-0.4-0.2-0.6-0.3l0.5-0.9c0.1,0.1,0.3,0.2,0.4,0.3c0.2,0.1,0.3,0.1,0.5,0.2
		c0.2,0,0.3,0.1,0.4,0.1c0.1,0,0.3,0,0.4-0.1c0.1,0,0.2-0.1,0.3-0.2c0.1-0.1,0.1-0.2,0.1-0.4c0-0.1,0-0.2-0.1-0.3
		c-0.1-0.1-0.2-0.2-0.3-0.3c-0.1-0.1-0.3-0.1-0.4-0.2c-0.2-0.1-0.4-0.1-0.5-0.2c-0.2-0.1-0.4-0.2-0.5-0.3c-0.2-0.1-0.3-0.3-0.4-0.5
		c-0.1-0.2-0.1-0.4-0.1-0.7c0-0.3,0.1-0.6,0.2-0.9c0.1-0.2,0.4-0.4,0.6-0.6c0.3-0.1,0.6-0.2,0.9-0.2c0.5,0,0.8,0.1,1.1,0.2
		c0.3,0.1,0.5,0.2,0.8,0.4L73.6,9.3z"/>
	<path d="M74.6,7.9h3.8V9h-1.4v4.6H76V9h-1.3V7.9z"/>
	<path d="M81.2,7.9c0.4,0,0.7,0,0.9,0.1c0.3,0.1,0.5,0.2,0.7,0.4c0.2,0.2,0.3,0.4,0.4,0.6s0.1,0.5,0.1,0.8c0,0.2,0,0.5-0.1,0.7
		c-0.1,0.2-0.2,0.4-0.3,0.6c-0.2,0.2-0.4,0.3-0.6,0.5c-0.3,0.1-0.6,0.2-0.9,0.2h-0.8v1.8h-1.1V7.9H81.2z M81.4,10.7
		c0.2,0,0.3,0,0.4-0.1c0.1-0.1,0.2-0.1,0.3-0.2c0.1-0.1,0.1-0.2,0.1-0.3c0-0.1,0-0.2,0-0.3c0-0.1,0-0.1,0-0.2c0-0.1-0.1-0.2-0.1-0.3
		c-0.1-0.1-0.1-0.2-0.3-0.2C81.8,9.1,81.6,9,81.4,9h-0.8v1.7H81.4z M82.5,11.4l1.4,2.2h-1.3l-1.4-2.1L82.5,11.4z"/>
	<path d="M84.2,10.8c0-0.4,0.1-0.8,0.2-1.1c0.1-0.3,0.4-0.7,0.6-0.9c0.3-0.3,0.6-0.5,0.9-0.6c0.3-0.2,0.7-0.2,1.1-0.2
		c0.4,0,0.8,0.1,1.1,0.2c0.3,0.2,0.7,0.4,0.9,0.6c0.3,0.3,0.5,0.6,0.6,0.9c0.2,0.3,0.2,0.7,0.2,1.1c0,0.4-0.1,0.8-0.2,1.1
		c-0.2,0.3-0.4,0.7-0.6,0.9c-0.3,0.3-0.6,0.5-0.9,0.6c-0.3,0.1-0.7,0.2-1.1,0.2c-0.4,0-0.8-0.1-1.1-0.2c-0.3-0.1-0.7-0.4-0.9-0.6
		c-0.3-0.3-0.5-0.6-0.6-0.9C84.3,11.5,84.2,11.2,84.2,10.8z M85.4,10.8c0,0.3,0,0.5,0.1,0.7c0.1,0.2,0.2,0.4,0.4,0.6
		c0.2,0.2,0.3,0.3,0.6,0.4c0.2,0.1,0.4,0.1,0.7,0.1c0.2,0,0.5,0,0.7-0.1c0.2-0.1,0.4-0.2,0.5-0.4c0.2-0.2,0.3-0.4,0.4-0.6
		c0.1-0.2,0.1-0.5,0.1-0.7c0-0.3,0-0.5-0.1-0.7c-0.1-0.2-0.2-0.4-0.4-0.6c-0.2-0.2-0.3-0.3-0.5-0.4C87.6,9,87.4,9,87.1,9
		c-0.2,0-0.5,0-0.7,0.1c-0.2,0.1-0.4,0.2-0.6,0.4c-0.2,0.2-0.3,0.4-0.4,0.6C85.4,10.3,85.4,10.5,85.4,10.8z"/>
</g>
</svg>
