<?xml version="1.0" encoding="utf-8"?>
<!-- Generator: Adobe Illustrator 26.0.3, SVG Export Plug-In . SVG Version: 6.00 Build 0)  -->
<svg version="1.1" id="Layer_1" xmlns="http://www.w3.org/2000/svg" xmlns:xlink="http://www.w3.org/1999/xlink" x="0px" y="0px"
	 viewBox="0 0 162 35" style="enable-background:new 0 0 162 35;" xml:space="preserve">
<style type="text/css">
	.st0{fill:#FFFFFF;}
</style>
<path class="st0" d="M53.8,15C45.6,1,29.9,1,21.7,15c2.7-7.3,9.1-12,16.1-12C44.7,3,51.1,7.7,53.8,15L53.8,15z M37.8,28.1
	c-2.6,0-5-1.3-6.5-3.2h3.9c0.8,0.4,1.7,0.7,2.6,0.7c1,0,1.9-0.2,2.6-0.7h3.1h0.7C42.8,26.8,40.5,28.1,37.8,28.1L37.8,28.1z
	 M37.8,34.6H19.9c-0.7,0-1.3-0.6-1.3-1.3l0,0c0-0.7,0.6-1.3,1.3-1.3h9.3c-0.9-0.6-1.8-1.3-2.6-2.1H13.7c-0.7,0-1.3-0.6-1.3-1.3l0,0
	c0-0.7,0.6-1.3,1.3-1.3h10.9c-0.5-0.8-0.9-1.6-1.2-2.4H8.2c-0.7,0-1.3-0.6-1.3-1.3c0-0.7,0.6-1.3,1.3-1.3h14.4h21H53
	C51.5,29.3,45.3,34.6,37.8,34.6L37.8,34.6z M27.4,19.7h26.3c2.1,0,2.3-1.2,2-2.7C54.2,8.7,48.3,2.4,39.6,1.3c-0.1-1-0.9-1.7-1.8-1.7
	S36.1,0.3,36,1.2c-2,0.2-4.1,0.9-5.2,1.4c-6.4,2.9-10,7.6-11.6,14.6H1.3c-0.7,0-1.3,0.6-1.3,1.3c0,0.7,0.6,1.3,1.3,1.3h22.6H27.4z"
	/>
<g id="Black">
	<path class="st0" d="M59.5,9.9H68v2.6h-5.8v3.1h5.1v2.6h-5.1v5.5h-2.7C59.5,23.6,59.5,9.9,59.5,9.9z"/>
	<path class="st0" d="M69.6,19c0-0.7,0.2-1.4,0.3-1.9c0.3-0.7,0.7-1.2,1.2-1.5c0.5-0.5,1-0.9,1.5-1c0.5-0.3,1.2-0.3,1.9-0.3
		c0.7,0,1.4,0.2,1.9,0.3c0.5,0.3,1.2,0.7,1.5,1c0.5,0.3,0.9,0.9,1.2,1.5c0.3,0.5,0.3,1.2,0.3,1.9c0,0.7-0.2,1.4-0.3,1.9
		c-0.3,0.5-0.7,1.2-1,1.5c-0.5,0.5-1,0.9-1.5,1c-0.5,0.2-1.2,0.3-1.9,0.3s-1.4-0.2-1.9-0.3c-0.5-0.2-1.2-0.7-1.5-1
		c-0.5-0.5-0.9-1-1-1.5C69.8,20.1,69.6,19.6,69.6,19z M71.6,19c0,0.5,0,0.9,0.2,1.2c0.2,0.3,0.3,0.7,0.7,1c0.3,0.3,0.5,0.5,1,0.7
		c0.3,0.2,0.7,0.2,1.2,0.2c0.3,0,0.9,0,1.2-0.2c0.3-0.2,0.7-0.3,0.9-0.7c0.3-0.3,0.5-0.7,0.7-1s0.2-0.9,0.2-1.2c0-0.5,0-0.9-0.2-1.2
		c-0.2-0.3-0.3-0.7-0.7-1c-0.3-0.3-0.5-0.5-0.9-0.7c-0.5-0.2-0.9-0.2-1.4-0.2c-0.3,0-0.9,0-1.2,0.2s-0.7,0.3-1,0.7
		c-0.3,0.3-0.5,0.7-0.7,1C71.6,18.1,71.6,18.4,71.6,19z"/>
	<path class="st0" d="M80.9,19c0-0.7,0.2-1.4,0.3-1.9c0.2-0.7,0.5-1.2,1-1.5c0.5-0.5,1-0.9,1.5-1c0.7-0.3,1.2-0.5,1.9-0.5
		s1.4,0.2,1.9,0.3c0.5,0.3,1.2,0.7,1.5,1c0.5,0.5,0.9,1,1,1.5c0.2,0.5,0.3,1.2,0.3,1.9c0,0.7-0.2,1.4-0.3,1.9
		c-0.3,0.5-0.7,1.2-1,1.5c-0.5,0.5-1,0.9-1.5,1c-0.5,0.2-1.2,0.3-1.9,0.3c-0.7,0-1.4-0.2-1.9-0.3s-1.2-0.7-1.5-1
		c-0.3-0.3-0.9-1-1-1.5C80.9,20.1,80.9,19.6,80.9,19z M82.7,19c0,0.5,0,0.9,0.2,1.2c0.2,0.3,0.3,0.7,0.7,1c0.3,0.3,0.5,0.5,1,0.7
		C85,22,85.3,22,85.8,22c0.3,0,0.9,0,1.2-0.2c0.3-0.2,0.7-0.3,0.9-0.7c0.3-0.3,0.5-0.7,0.7-1c0.2-0.3,0.2-0.9,0.2-1.2
		c0-0.5,0-0.9-0.2-1.2c-0.2-0.3-0.3-0.7-0.7-1c-0.3-0.3-0.5-0.5-0.9-0.7c-0.5-0.2-0.9-0.2-1.4-0.2s-0.9,0-1.2,0.2
		c-0.3,0.2-0.7,0.3-1,0.7c-0.3,0.3-0.5,0.7-0.7,1C82.7,18.1,82.7,18.4,82.7,19z"/>
	<path class="st0" d="M92.5,23.7V14h2.9c1,0,1.7,0.2,2.4,0.5c0.7,0.3,1.2,0.7,1.7,1.2c0.3,0.5,0.7,1,0.9,1.5
		c0.2,0.5,0.3,1.2,0.3,1.7c0,0.7-0.2,1.4-0.3,1.9c-0.3,0.5-0.7,1-1,1.5c-0.5,0.3-1,0.7-1.5,0.9c-0.5,0.2-1.2,0.3-1.9,0.3h-3.4V23.7z
		 M94.4,21.9h1.2c0.5,0,0.9,0,1.4-0.2c0.3-0.2,0.7-0.3,1-0.5s0.5-0.5,0.7-0.9c0.2-0.3,0.2-0.9,0.2-1.2c0-0.7-0.2-1.2-0.3-1.5
		c-0.2-0.3-0.5-0.7-0.7-0.9c-0.3-0.2-0.7-0.3-0.9-0.5c-0.5-0.3-0.7-0.3-1-0.3h-1.5V21.9z"/>
	<path class="st0" d="M103.1,23.7V9.4l0,0l7.7,10.8l-1.2-0.3l7.7-10.6l0,0v14.4h-2.6v-8l0.2,1.4l-4.6,6.7l0,0l-4.8-6.7l0.5-1.4v8
		h-2.9V23.7z"/>
	<path class="st0" d="M122.9,20.7l-3.6-6.7h2.4l2.6,5h-0.5l2.4-5h2.2l-3.6,6.7v3.1h-1.9V20.7z"/>
	<path class="st0" d="M134.5,16.4c-0.3-0.2-0.7-0.3-1.2-0.5c-0.3-0.2-0.7-0.2-1-0.2s-0.7,0-1,0.2c-0.2,0.2-0.3,0.3-0.3,0.7
		c0,0.2,0.2,0.5,0.3,0.7c0.2,0.2,0.3,0.3,0.7,0.5c0.3,0.2,0.5,0.3,0.9,0.3c0.3,0.2,0.5,0.2,0.9,0.3s0.5,0.3,0.7,0.5
		c0.2,0.2,0.3,0.5,0.5,0.9c0.2,0.3,0.2,0.7,0.2,1.2c0,0.5-0.2,1-0.3,1.4c-0.2,0.3-0.7,0.7-1.2,1c-0.5,0.3-1,0.3-1.9,0.3
		c-0.3,0-0.7,0-1.2-0.2c-0.3,0-0.7-0.2-1.2-0.3c-0.3-0.2-0.7-0.3-1-0.5l0.9-1.5c0.2,0.2,0.5,0.3,0.7,0.5c0.3,0.2,0.5,0.2,0.9,0.3
		c0.3,0,0.5,0.2,0.7,0.2c0.2,0,0.5,0,0.7-0.2c0.2,0,0.3-0.2,0.5-0.3c0.2-0.2,0.2-0.3,0.2-0.7c0-0.2,0-0.3-0.2-0.5s-0.3-0.3-0.5-0.5
		c-0.2-0.2-0.5-0.2-0.7-0.3c-0.3-0.2-0.7-0.2-0.9-0.3c-0.3-0.2-0.7-0.3-0.9-0.5c-0.3-0.2-0.5-0.5-0.7-0.9c-0.2-0.3-0.2-0.7-0.2-1.2
		c0-0.5,0.2-1,0.3-1.5c0.2-0.3,0.7-0.7,1-1c0.5-0.2,1-0.3,1.5-0.3c0.9,0,1.4,0.2,1.9,0.3c0.5,0.2,0.9,0.3,1.4,0.7L134.5,16.4z"/>
	<path class="st0" d="M136.2,14h6.5v1.9h-2.4v7.9h-1.7v-7.9h-2.2V14H136.2z"/>
	<path class="st0" d="M147.5,14c0.7,0,1.2,0,1.5,0.2c0.5,0.2,0.9,0.3,1.2,0.7c0.3,0.3,0.5,0.7,0.7,1s0.2,0.9,0.2,1.4
		c0,0.3,0,0.9-0.2,1.2c-0.2,0.3-0.3,0.7-0.5,1c-0.3,0.3-0.7,0.5-1,0.9c-0.5,0.2-1,0.3-1.5,0.3h-1.4v3.1h-1.9V14H147.5z M147.8,18.8
		c0.3,0,0.5,0,0.7-0.2s0.3-0.2,0.5-0.3c0.2-0.2,0.2-0.3,0.2-0.5c0-0.2,0-0.3,0-0.5s0-0.2,0-0.3c0-0.2-0.2-0.3-0.2-0.5
		c-0.2-0.2-0.2-0.3-0.5-0.3c0,0-0.3-0.2-0.7-0.2h-1.4v2.9H147.8z M149.7,20l2.4,3.8h-2.2l-2.4-3.6L149.7,20z"/>
	<path class="st0" d="M152.6,19c0-0.7,0.2-1.4,0.3-1.9c0.2-0.5,0.7-1.2,1-1.5c0.5-0.5,1-0.9,1.5-1c0.5-0.3,1.2-0.3,1.9-0.3
		s1.4,0.2,1.9,0.3c0.5,0.3,1.2,0.7,1.5,1c0.5,0.5,0.9,1,1,1.5c0.3,0.5,0.3,1.2,0.3,1.9c0,0.7-0.2,1.4-0.3,1.9
		c-0.3,0.5-0.7,1.2-1,1.5c-0.5,0.5-1,0.9-1.5,1c-0.5,0.2-1.2,0.3-1.9,0.3s-1.4-0.2-1.9-0.3c-0.5-0.2-1.2-0.7-1.5-1
		c-0.5-0.5-0.9-1-1-1.5C152.8,20.1,152.6,19.6,152.6,19z M154.7,19c0,0.5,0,0.9,0.2,1.2c0.2,0.3,0.3,0.7,0.7,1
		c0.3,0.3,0.5,0.5,1,0.7c0.3,0.2,0.7,0.2,1.2,0.2c0.3,0,0.9,0,1.2-0.2s0.7-0.3,0.9-0.7c0.3-0.3,0.5-0.7,0.7-1
		c0.2-0.3,0.2-0.9,0.2-1.2c0-0.5,0-0.9-0.2-1.2c-0.2-0.3-0.3-0.7-0.7-1c-0.3-0.3-0.5-0.5-0.9-0.7c-0.5-0.2-0.9-0.2-1.4-0.2
		c-0.3,0-0.9,0-1.2,0.2s-0.7,0.3-1,0.7c-0.3,0.3-0.5,0.7-0.7,1C154.7,18.1,154.7,18.4,154.7,19z"/>
</g>
</svg>
